# xmcd
#
# Track frame offsets: 
#        150
#        19897
#        47077
#        64027
#        82926
#        101135
#        124475
#        145535
#
# Disc length: 2180 seconds
#
# Revision: 0
# Processed by: cddbd v1.5.2PL0 Copyright (c) Steve Scherf et al.
# Submitted via: ExactAudioCopy v1.2
#
DISCID=68088208
DTITLE=Reverend Km Williams - Solo in Switzerland (Live)
DYEAR=2017
DGENRE=Blues
TTITLE0=Is There Somethin' on Your Mind (Live)
TTITLE1=Nobody but You (Live) 
TTITLE2=Jesus Will Fix It (Live)
TTITLE3=Baby Please Don't You Leave Me (Live)
TTITLE4=Free to Roam (Live)
TTITLE5=Meet You at the Station (Live)
TTITLE6=Sittin' on Top of the World (Live)
TTITLE7=Done Got Old (Live)
EXTD=
EXTT0=
EXTT1=
EXTT2=
EXTT3=
EXTT4=
EXTT5=
EXTT6=
EXTT7=
PLAYORDER=
